<svg width="24" height="24" viewBox="0 0 24 24" fill="none" xmlns="http://www.w3.org/2000/svg">
<path d="M12.2958 16.4173C12.6494 16.8416 13.2799 16.8989 13.7042 16.5453C14.1285 16.1918 14.1858 15.5612 13.8323 15.1369L12.2958 16.4173ZM9.74945 11.7996L8.98123 11.1594C8.67219 11.5303 8.67219 12.0689 8.98123 12.4398L9.74945 11.7996ZM13.8323 8.46228C14.1858 8.038 14.1285 7.40744 13.7042 7.05387C13.2799 6.70031 12.6494 6.75763 12.2958 7.18191L13.8323 8.46228ZM13.064 15.7771L13.8323 15.1369L10.5177 11.1594L9.74945 11.7996L8.98123 12.4398L12.2958 16.4173L13.064 15.7771ZM9.74945 11.7996L10.5177 12.4398L13.8323 8.46228L13.064 7.82209L12.2958 7.18191L8.98123 11.1594L9.74945 11.7996ZM12 3V4C16.4183 4 20 7.58172 20 12H21H22C22 6.47715 17.5228 2 12 2V3ZM21 12H20C20 16.4183 16.4183 20 12 20V21V22C17.5228 22 22 17.5228 22 12H21ZM12 21V20C7.58172 20 4 16.4183 4 12H3H2C2 17.5228 6.47715 22 12 22V21ZM3 12H4C4 7.58172 7.58172 4 12 4V3V2C6.47715 2 2 6.47715 2 12H3Z" fill="#C7C7CC"/>
</svg>
