<svg width="13" height="14" viewBox="0 0 13 14" fill="none" xmlns="http://www.w3.org/2000/svg">
<path fill-rule="evenodd" clip-rule="evenodd" d="M2.06178 3.8618C2.54935 3.37438 3.21055 3.10056 3.89998 3.10056C4.58941 3.10056 5.25061 3.37438 5.73818 3.8618L6.49998 4.62295L7.26178 3.8618C7.50162 3.61348 7.78852 3.4154 8.10573 3.27914C8.42294 3.14288 8.76411 3.07115 9.10934 3.06815C9.45456 3.06515 9.79693 3.13094 10.1165 3.26167C10.436 3.3924 10.7263 3.58546 10.9704 3.82958C11.2145 4.0737 11.4076 4.36399 11.5383 4.68352C11.669 5.00305 11.7348 5.34542 11.7318 5.69065C11.7288 6.03587 11.6571 6.37704 11.5208 6.69426C11.3846 7.01147 11.1865 7.29836 10.9382 7.5382L6.49998 11.9771L2.06178 7.5382C1.57436 7.05063 1.30054 6.38943 1.30054 5.7C1.30054 5.01058 1.57436 4.34938 2.06178 3.8618V3.8618Z" stroke="#F9C6D0" stroke-width="2" stroke-linejoin="round"/>
</svg>
