<svg width="13" height="14" viewBox="0 0 13 14" fill="none" xmlns="http://www.w3.org/2000/svg">
<path d="M6.22645 1.97008C6.33834 1.74337 6.66162 1.74337 6.77351 1.97008L8.22193 4.9049C8.26636 4.99493 8.35225 5.05733 8.4516 5.07176L11.6904 5.54238C11.9406 5.57874 12.0405 5.8862 11.8594 6.06267L9.51582 8.34711C9.44393 8.41718 9.41113 8.51815 9.4281 8.6171L9.98134 11.8428C10.0241 12.092 9.76254 12.282 9.53876 12.1643L6.64192 10.6414C6.55306 10.5947 6.4469 10.5947 6.35804 10.6414L3.4612 12.1643C3.23742 12.282 2.97588 12.092 3.01861 11.8428L3.57186 8.6171C3.58883 8.51815 3.55603 8.41718 3.48414 8.34711L1.14054 6.06267C0.959504 5.8862 1.0594 5.57874 1.3096 5.54238L4.54836 5.07176C4.64771 5.05733 4.7336 4.99493 4.77803 4.9049L6.22645 1.97008Z" stroke="#FFB482" stroke-linejoin="round"/>
</svg>
