<svg width="21" height="21" viewBox="0 0 21 21" fill="none" xmlns="http://www.w3.org/2000/svg">
<path d="M15.2712 5.28855C14.8806 5.67907 14.8806 6.31224 15.2712 6.70276C15.6617 7.09328 16.2948 7.09328 16.6854 6.70276L15.2712 5.28855ZM17.4158 2.36681C17.0253 1.97628 16.3921 1.97628 16.0016 2.36681C15.6111 2.75733 15.6111 3.3905 16.0016 3.78102L17.4158 2.36681ZM18.1929 5.97232C18.5834 6.36285 19.2166 6.36285 19.6071 5.97232C19.9976 5.5818 19.9976 4.94864 19.6071 4.55811L18.1929 5.97232ZM11.5 8.6108C11.5 8.05851 11.0523 7.6108 10.5 7.6108C9.94771 7.6108 9.5 8.05851 9.5 8.6108H11.5ZM9.5 11.5653C9.5 12.1176 9.94771 12.5653 10.5 12.5653C11.0523 12.5653 11.5 12.1176 11.5 11.5653H9.5ZM8.3125 0.75C7.76021 0.75 7.3125 1.19772 7.3125 1.75C7.3125 2.30228 7.76021 2.75 8.3125 2.75V0.75ZM12.6875 2.75C13.2398 2.75 13.6875 2.30228 13.6875 1.75C13.6875 1.19772 13.2398 0.75 12.6875 0.75V2.75ZM15.9783 5.99565L16.6854 6.70276L18.5115 4.87667L17.8043 4.16957L17.0972 3.46246L15.2712 5.28855L15.9783 5.99565ZM16.7087 3.07391L16.0016 3.78102L17.0972 4.87667L17.8043 4.16957L18.5115 3.46246L17.4158 2.36681L16.7087 3.07391ZM17.8043 4.16957L17.0972 4.87667L18.1929 5.97232L18.9 5.26522L19.6071 4.55811L18.5115 3.46246L17.8043 4.16957ZM10.5 8.6108H9.5V11.5653H10.5H11.5V8.6108H10.5ZM8.3125 1.75V2.75H12.6875V1.75V0.75H8.3125V1.75ZM17.9375 11.75H16.9375C16.9375 15.3478 14.0475 18.25 10.5 18.25V19.25V20.25C15.1678 20.25 18.9375 16.4365 18.9375 11.75H17.9375ZM10.5 19.25V18.25C6.95254 18.25 4.0625 15.3478 4.0625 11.75H3.0625H2.0625C2.0625 16.4365 5.83222 20.25 10.5 20.25V19.25ZM3.0625 11.75H4.0625C4.0625 8.15224 6.95254 5.25 10.5 5.25V4.25V3.25C5.83222 3.25 2.0625 7.06349 2.0625 11.75H3.0625ZM10.5 4.25V5.25C14.0475 5.25 16.9375 8.15224 16.9375 11.75H17.9375H18.9375C18.9375 7.06349 15.1678 3.25 10.5 3.25V4.25Z" fill="white"/>
</svg>
