<svg width="24" height="24" viewBox="0 0 24 24" fill="none" xmlns="http://www.w3.org/2000/svg">
<path d="M11.6427 7.18281C11.2891 6.75854 10.6585 6.70121 10.2343 7.05478C9.80998 7.40834 9.75265 8.03891 10.1062 8.46318L11.6427 7.18281ZM14.189 11.8005L14.9572 12.4407C15.2663 12.0698 15.2663 11.5312 14.9572 11.1603L14.189 11.8005ZM10.1062 15.1378C9.75265 15.5621 9.80998 16.1927 10.2343 16.5462C10.6585 16.8998 11.2891 16.8425 11.6427 16.4182L10.1062 15.1378ZM10.8744 7.823L10.1062 8.46318L13.4208 12.4407L14.189 11.8005L14.9572 11.1603L11.6427 7.18281L10.8744 7.823ZM14.189 11.8005L13.4208 11.1603L10.1062 15.1378L10.8744 15.778L11.6427 16.4182L14.9572 12.4407L14.189 11.8005ZM12 3V4C16.4183 4 20 7.58172 20 12H21H22C22 6.47715 17.5228 2 12 2V3ZM21 12H20C20 16.4183 16.4183 20 12 20V21V22C17.5228 22 22 17.5228 22 12H21ZM12 21V20C7.58172 20 4 16.4183 4 12H3H2C2 17.5228 6.47715 22 12 22V21ZM3 12H4C4 7.58172 7.58172 4 12 4V3V2C6.47715 2 2 6.47715 2 12H3Z" fill="#222222"/>
</svg>
