<svg width="24" height="24" viewBox="0 0 24 24" fill="none" xmlns="http://www.w3.org/2000/svg">
<path d="M2.91211 14.3548H14.2901M2.91211 14.3548L14.2317 14.3537C14.2513 14.3537 14.2708 14.3541 14.2901 14.3548M2.91211 14.3548L2.91211 18.24C2.91211 18.7702 3.44937 19.2 4.11211 19.2H14.2321C14.8949 19.2 15.4321 18.7702 15.4321 18.24V15.3137C15.4321 14.7991 14.9259 14.3791 14.2901 14.3548M2.91211 14.3548L2.91211 9.50825M14.2901 14.3548H19.8881C20.5509 14.3548 21.0881 13.925 21.0881 13.3948V10.4682C21.0881 9.93806 20.5509 9.50825 19.8881 9.50825M2.91211 9.50825H19.8881M2.91211 9.50825L2.91211 5.76002C2.91211 5.22983 3.44937 4.80003 4.11211 4.80003L8.91211 4.80002C9.57485 4.80002 10.1121 5.22983 10.1121 5.76002V8.54825C10.1121 9.07844 9.57485 9.50825 8.91211 9.50825L19.8881 9.50825M2.91211 21.6V2.40002" stroke="#222222" style="stroke:#222222;stroke:color(display-p3 0.1333 0.1333 0.1333);stroke-opacity:1;" stroke-width="2" stroke-linecap="round" stroke-linejoin="round"/>
</svg>
