<svg width="20" height="20" viewBox="0 0 20 20" fill="none" xmlns="http://www.w3.org/2000/svg">
<path fill-rule="evenodd" clip-rule="evenodd" d="M3.17212 5.17196C3.92223 4.42207 4.93946 4.00081 6.00012 4.00081C7.06078 4.00081 8.07801 4.42207 8.82812 5.17196L10.0001 6.34296L11.1721 5.17196C11.5411 4.78992 11.9825 4.48519 12.4705 4.27555C12.9585 4.06592 13.4834 3.95557 14.0145 3.95096C14.5456 3.94634 15.0723 4.04755 15.5639 4.24867C16.0555 4.4498 16.5021 4.74681 16.8777 5.12238C17.2533 5.49795 17.5503 5.94456 17.7514 6.43614C17.9525 6.92773 18.0537 7.45445 18.0491 7.98556C18.0445 8.51668 17.9342 9.04156 17.7245 9.52958C17.5149 10.0176 17.2102 10.459 16.8281 10.828L10.0001 17.657L3.17212 10.828C2.42224 10.0778 2.00098 9.06061 2.00098 7.99996C2.00098 6.9393 2.42224 5.92207 3.17212 5.17196V5.17196Z" stroke="#F9C6D0" stroke-width="2" stroke-linejoin="round"/>
</svg>
