<svg width="20" height="20" viewBox="0 0 20 20" fill="none" xmlns="http://www.w3.org/2000/svg">
<g clip-path="url(#clip0_41_414)">
<path fill-rule="evenodd" clip-rule="evenodd" d="M2.64344 4.30999C3.26853 3.68508 4.11622 3.33403 5.0001 3.33403C5.88398 3.33403 6.73168 3.68508 7.35677 4.30999L8.33343 5.28582L9.3101 4.30999C9.61759 3.99162 9.9854 3.73768 10.3921 3.56298C10.7988 3.38828 11.2362 3.29633 11.6788 3.29248C12.1214 3.28864 12.5603 3.37298 12.9699 3.54058C13.3796 3.70818 13.7518 3.95569 14.0647 4.26867C14.3777 4.58164 14.6252 4.95382 14.7928 5.36347C14.9604 5.77313 15.0448 6.21206 15.0409 6.65466C15.0371 7.09725 14.9451 7.53465 14.7704 7.94133C14.5957 8.34801 14.3418 8.71583 14.0234 9.02332L8.33343 14.7142L2.64344 9.02332C2.01853 8.39823 1.66748 7.55053 1.66748 6.66665C1.66748 5.78277 2.01853 4.93508 2.64344 4.30999Z" fill="#F9C6D0" stroke="#F9C6D0" stroke-width="2" stroke-linejoin="round"/>
</g>
<defs>
<clipPath id="clip0_41_414">
<rect width="16.6667" height="16.6667" fill="white"/>
</clipPath>
</defs>
</svg>
