<svg width="18" height="17" viewBox="0 0 18 17" fill="none" xmlns="http://www.w3.org/2000/svg">
<path fill-rule="evenodd" clip-rule="evenodd" d="M3.14331 4.31C3.76841 3.6851 4.6161 3.33405 5.49998 3.33405C6.38386 3.33405 7.23155 3.6851 7.85665 4.31L8.83331 5.28583L9.80998 4.31C10.1175 3.99163 10.4853 3.73769 10.892 3.563C11.2986 3.3883 11.736 3.29635 12.1786 3.2925C12.6212 3.28865 13.0602 3.37299 13.4698 3.5406C13.8795 3.7082 14.2517 3.95571 14.5646 4.26868C14.8776 4.58166 15.1251 4.95383 15.2927 5.36349C15.4603 5.77314 15.5447 6.21207 15.5408 6.65467C15.537 7.09727 15.445 7.53467 15.2703 7.94135C15.0956 8.34803 14.8417 8.71584 14.5233 9.02333L8.83331 14.7142L3.14331 9.02333C2.51841 8.39824 2.16736 7.55055 2.16736 6.66667C2.16736 5.78279 2.51841 4.93509 3.14331 4.31Z" fill="#F9C6D0" stroke="#F9C6D0" stroke-width="2" stroke-linejoin="round"/>
</svg>
