<svg width="24" height="24" viewBox="0 0 24 24" fill="none" xmlns="http://www.w3.org/2000/svg">
<path d="M21.544 11.045C21.848 11.471 22 11.685 22 12C22 12.316 21.848 12.529 21.544 12.955C20.178 14.871 16.689 19 12 19C7.31 19 3.822 14.87 2.456 12.955C2.152 12.529 2 12.315 2 12C2 11.684 2.152 11.471 2.456 11.045C3.822 9.129 7.311 5 12 5C16.69 5 20.178 9.13 21.544 11.045Z" stroke="#F9C6D0" stroke-width="1.5" stroke-linecap="round" stroke-linejoin="round"/>
<path d="M15 12C15 11.2044 14.6839 10.4413 14.1213 9.87868C13.5587 9.31607 12.7956 9 12 9C11.2044 9 10.4413 9.31607 9.87868 9.87868C9.31607 10.4413 9 11.2044 9 12C9 12.7956 9.31607 13.5587 9.87868 14.1213C10.4413 14.6839 11.2044 15 12 15C12.7956 15 13.5587 14.6839 14.1213 14.1213C14.6839 13.5587 15 12.7956 15 12Z" stroke="#F9C6D0" stroke-width="1.5" stroke-linecap="round" stroke-linejoin="round"/>
</svg>
